<svg width="120" height="120" viewBox="0 0 120 120" fill="none" xmlns="http://www.w3.org/2000/svg">
  <!-- Background Circle -->
  <circle cx="60" cy="60" r="58" fill="#f8fafc" stroke="#e2e8f0" stroke-width="4"/>
  
  <!-- Face -->
  <ellipse cx="60" cy="55" rx="23" ry="26" fill="#f5c6a1"/>
  
  <!-- Hair - Professional bob -->
  <path d="M37 45C37 33 47 23 60 23C73 23 83 33 83 45C83 42 83 39 83 36C83 32 79 29 75 29C71 29 67 27 60 27C53 27 49 29 45 29C41 29 37 32 37 36C37 39 37 42 37 45Z" 
        fill="#8b5a3c"/>
  
  <!-- Side hair (professional styling) -->
  <path d="M37 45C35 48 34 52 34 56C35 54 36 50 37 47Z" fill="#8b5a3c"/>
  <path d="M83 45C85 48 86 52 86 56C85 54 84 50 83 47Z" fill="#8b5a3c"/>
  
  <!-- Hair highlight -->
  <path d="M55 28C58 26 62 26 65 28C62 27 58 27 55 28Z" fill="#a66b47" opacity="0.7"/>
  
  <!-- Eyes (intelligent look) -->
  <ellipse cx="53" cy="50" rx="2.5" ry="3.5" fill="#1f2937"/>
  <ellipse cx="67" cy="50" rx="2.5" ry="3.5" fill="#1f2937"/>
  <circle cx="54" cy="49" r="1" fill="white"/>
  <circle cx="68" cy="49" r="1" fill="white"/>
  
  <!-- Eyebrows (thoughtful) -->
  <path d="M49 44C51 42 55 42 57 44" stroke="#8b5a3c" stroke-width="2" stroke-linecap="round"/>
  <path d="M63 44C65 42 69 42 71 44" stroke="#8b5a3c" stroke-width="2" stroke-linecap="round"/>
  
  <!-- Nose -->
  <ellipse cx="60" cy="56" rx="1.5" ry="2" fill="#e8b796"/>
  
  <!-- Mouth (confident, professional) -->
  <path d="M56 62C58 64 62 64 64 62" stroke="#d4705a" stroke-width="2" stroke-linecap="round" fill="none"/>
  
  <!-- Clothing - Professional blazer -->
  <path d="M35 85C35 80 40 75 45 75L75 75C80 75 85 80 85 85L85 115L35 115Z" fill="#2563eb"/>
  
  <!-- Blazer lapels -->
  <path d="M45 75L50 85L60 80L70 85L75 75" fill="#1d4ed8"/>
  
  <!-- Professional pin/badge -->
  <circle cx="70" cy="82" r="3" fill="#fbbf24"/>
  <circle cx="70" cy="82" r="2" fill="#f59e0b"/>
  <text x="70" y="84" font-family="Arial" font-size="4" fill="white" text-anchor="middle">PhD</text>
  
  <!-- Research scientist detail - small notebook -->
  <rect x="52" y="90" width="8" height="6" rx="1" fill="white" stroke="#6b7280"/>
  <line x1="54" y1="92" x2="58" y2="92" stroke="#6b7280" stroke-width="0.5"/>
  <line x1="54" y1="94" x2="58" y2="94" stroke="#6b7280" stroke-width="0.5"/>
</svg>