<svg width="120" height="120" viewBox="0 0 120 120" fill="none" xmlns="http://www.w3.org/2000/svg">
  <!-- Background Circle -->
  <circle cx="60" cy="60" r="58" fill="#f8fafc" stroke="#e2e8f0" stroke-width="4"/>
  
  <!-- Face -->
  <ellipse cx="60" cy="55" rx="24" ry="27" fill="#d4a574"/>
  
  <!-- Hair -->
  <path d="M36 45C36 32 46 22 60 22C74 22 84 32 84 45C84 41 84 38 84 35C84 31 80 28 76 28C72 28 68 26 60 26C52 26 48 28 44 28C40 28 36 31 36 35C36 38 36 41 36 45Z" 
        fill="#2c1810"/>
  
  <!-- Beard -->
  <path d="M45 65C50 70 55 72 60 72C65 72 70 70 75 65C75 68 72 70 68 71C64 72 56 72 52 71C48 70 45 68 45 65Z" 
        fill="#2c1810"/>
  
  <!-- Mustache -->
  <path d="M52 61C56 63 60 63 64 63C66 63 68 62 68 61C66 62 64 62 60 62C56 62 54 62 52 61Z" 
        fill="#2c1810"/>
  
  <!-- Glasses -->
  <g>
    <!-- Frame -->
    <circle cx="52" cy="50" r="8" fill="none" stroke="#374151" stroke-width="2"/>
    <circle cx="68" cy="50" r="8" fill="none" stroke="#374151" stroke-width="2"/>
    <!-- Bridge -->
    <path d="M60 50L60 50" stroke="#374151" stroke-width="2"/>
    <!-- Lens reflection -->
    <circle cx="52" cy="50" r="7" fill="#f8fafc" opacity="0.3"/>
    <circle cx="68" cy="50" r="7" fill="#f8fafc" opacity="0.3"/>
  </g>
  
  <!-- Eyes behind glasses -->
  <ellipse cx="52" cy="50" rx="2.5" ry="3" fill="#1f2937"/>
  <ellipse cx="68" cy="50" rx="2.5" ry="3" fill="#1f2937"/>
  <circle cx="53" cy="49" r="0.8" fill="white"/>
  <circle cx="69" cy="49" r="0.8" fill="white"/>
  
  <!-- Eyebrows -->
  <path d="M46 43C48 41 52 41 54 43" stroke="#2c1810" stroke-width="2" stroke-linecap="round"/>
  <path d="M66 43C68 41 72 41 74 43" stroke="#2c1810" stroke-width="2" stroke-linecap="round"/>
  
  <!-- Nose -->
  <ellipse cx="60" cy="56" rx="1.5" ry="2" fill="#c49366"/>
  
  <!-- Mouth (friendly smile) -->
  <path d="M54 64C57 67 63 67 66 64" stroke="#d4705a" stroke-width="2" stroke-linecap="round" fill="none"/>
  
  <!-- Clothing - DevOps hoodie -->
  <path d="M35 85C35 80 40 75 45 75L75 75C80 75 85 80 85 85L85 115L35 115Z" fill="#374151"/>
  
  <!-- Hoodie strings -->
  <circle cx="57" cy="78" r="1" fill="#6b7280"/>
  <circle cx="63" cy="78" r="1" fill="#6b7280"/>
  
  <!-- Small DevOps/tech detail - terminal icon on shirt -->
  <rect x="55" y="88" width="10" height="8" rx="1" fill="#10b981"/>
  <rect x="57" y="90" width="6" height="1" rx="0.5" fill="white"/>
  <rect x="57" y="92" width="4" height="1" rx="0.5" fill="white"/>
</svg>