<svg width="180" height="48" viewBox="0 0 180 48" fill="none" xmlns="http://www.w3.org/2000/svg">
  <!-- Brand Symbol -->
  <g>
    <!-- Main container/server representation -->
    <rect x="4" y="8" width="32" height="32" rx="8" fill="#5573df" stroke="#4254d6" stroke-width="1"/>
    
    <!-- AI Neural network pattern -->
    <circle cx="12" cy="16" r="2" fill="white" opacity="0.9"/>
    <circle cx="20" cy="16" r="2" fill="white" opacity="0.9"/>
    <circle cx="28" cy="16" r="2" fill="white" opacity="0.9"/>
    
    <circle cx="16" cy="24" r="2" fill="white" opacity="0.9"/>
    <circle cx="24" cy="24" r="2" fill="white" opacity="0.9"/>
    
    <circle cx="20" cy="32" r="2" fill="white" opacity="0.9"/>
    
    <!-- Neural connections -->
    <path d="M12 16L16 24M20 16L16 24M20 16L24 24M28 16L24 24M16 24L20 32M24 24L20 32" 
          stroke="white" stroke-width="1" opacity="0.6"/>
    
    <!-- Speed/deployment arrow -->
    <path d="M34 20L42 24L34 28L36 24Z" fill="#a855f7"/>
    <rect x="30" y="23" width="8" height="2" rx="1" fill="#a855f7" opacity="0.7"/>
  </g>
  
  <!-- Text -->
  <g>
    <!-- VoidRunner -->
    <text x="48" y="20" font-family="Inter, -apple-system, BlinkMacSystemFont, sans-serif" 
          font-weight="800" font-size="16" fill="#1f2937" letter-spacing="-0.02em">
      VoidRunner
    </text>
    
    <!-- Tagline -->
    <text x="48" y="34" font-family="Inter, -apple-system, BlinkMacSystemFont, sans-serif" 
          font-weight="500" font-size="10" fill="#6b7280" letter-spacing="0.05em">
      AI-POWERED DEPLOYMENT
    </text>
  </g>
</svg>